<svg xmlns="http://www.w3.org/2000/svg" viewBox="0 0 1200 760"><defs><linearGradient id="g" x1="0" y1="0" x2="1" y2="1"><stop stop-color="#052e16"/><stop offset=".55" stop-color="#0f766e"/><stop offset="1" stop-color="#064e3b"/></linearGradient><radialGradient id="r" cx="35%" cy="35%" r="58%"><stop stop-color="#86efac" stop-opacity=".9"/><stop offset="1" stop-color="#86efac" stop-opacity="0"/></radialGradient></defs><rect width="1200" height="760" fill="url(#g)"/><rect width="1200" height="760" fill="url(#r)" opacity=".6"/><path d="M610 565C455 455 398 335 476 206c127 18 227 93 296 222-38 71-91 117-162 137Z" fill="#bbf7d0" opacity=".9"/><path d="M505 514c78-112 145-192 255-286" stroke="#065f46" stroke-width="12" fill="none" stroke-linecap="round"/><path d="M574 420c-52-19-93-23-139-15M633 348c-26-55-54-92-96-125M683 298c41 14 77 40 110 77" stroke="#065f46" stroke-width="8" fill="none" stroke-linecap="round" opacity=".78"/><circle cx="890" cy="245" r="48" fill="#f97316" opacity=".9"/><text x="76" y="665" fill="#fff" font-family="Inter,Arial,sans-serif" font-size="54" font-weight="800">Ambiente</text><text x="78" y="708" fill="#dcfce7" font-family="Inter,Arial,sans-serif" font-size="24" font-weight="600">Clima, natura e sostenibilita</text></svg>