<svg xmlns="http://www.w3.org/2000/svg" viewBox="0 0 1200 760" role="img" aria-label="Intelligenza artificiale"><defs><linearGradient id="g" x1="0" y1="0" x2="1" y2="1"><stop stop-color="#061923"/><stop offset=".48" stop-color="#0f766e"/><stop offset="1" stop-color="#020617"/></linearGradient><radialGradient id="r" cx="35%" cy="45%" r="55%"><stop stop-color="#67e8f9" stop-opacity=".9"/><stop offset="1" stop-color="#67e8f9" stop-opacity="0"/></radialGradient></defs><rect width="1200" height="760" fill="url(#g)"/><rect width="1200" height="760" fill="url(#r)" opacity=".55"/><g fill="none" stroke="#99f6e4" stroke-width="7" opacity=".82"><path d="M330 520c-90-30-145-110-145-203 0-123 100-223 224-223 118 0 216 91 223 209 85 15 148 88 148 176 0 98-80 178-178 178H350c-74 0-134-60-134-134"/><path d="M430 195v390M545 225v330M315 335h355M330 445h330"/></g><g fill="#f97316"><circle cx="430" cy="195" r="12"/><circle cx="545" cy="225" r="12"/><circle cx="315" cy="335" r="12"/><circle cx="670" cy="335" r="12"/><circle cx="330" cy="445" r="12"/><circle cx="660" cy="445" r="12"/></g><text x="76" y="665" fill="#fff" font-family="Inter,Arial,sans-serif" font-size="54" font-weight="800">Intelligenza Artificiale</text><text x="78" y="708" fill="#ccfbf1" font-family="Inter,Arial,sans-serif" font-size="24" font-weight="600">Algoritmi, ricerca e societa</text></svg>