<svg xmlns="http://www.w3.org/2000/svg" viewBox="0 0 1200 760"><defs><linearGradient id="g" x1="0" y1="0" x2="1" y2="1"><stop stop-color="#042f2e"/><stop offset=".55" stop-color="#0d9488"/><stop offset="1" stop-color="#164e63"/></linearGradient><radialGradient id="r" cx="58%" cy="38%" r="55%"><stop stop-color="#ccfbf1" stop-opacity=".9"/><stop offset="1" stop-color="#ccfbf1" stop-opacity="0"/></radialGradient></defs><rect width="1200" height="760" fill="url(#g)"/><rect width="1200" height="760" fill="url(#r)" opacity=".55"/><g fill="none" stroke="#ecfeff" stroke-width="14" stroke-linecap="round" stroke-linejoin="round" opacity=".9"><path d="M600 210v310M445 365h310"/><path d="M600 590c-135-88-250-177-250-305 0-72 52-126 122-126 47 0 89 24 128 73 39-49 81-73 128-73 70 0 122 54 122 126 0 128-115 217-250 305Z" stroke-width="10" opacity=".65"/></g><circle cx="820" cy="205" r="36" fill="#f97316" opacity=".9"/><text x="76" y="665" fill="#fff" font-family="Inter,Arial,sans-serif" font-size="54" font-weight="800">Salute &amp; Biotech</text><text x="78" y="708" fill="#ccfbf1" font-family="Inter,Arial,sans-serif" font-size="24" font-weight="600">Scienza, medicina e benessere</text></svg>